<svg id="レイヤー_1" data-name="レイヤー 1" xmlns="http://www.w3.org/2000/svg" viewBox="0 0 475 124.44"><path d="M12,178.85H30.89v58.68c4-4.72,11.8-7.76,20.57-7.76,21.24,0,36.08,14.84,36.08,36.76V301.6H68.65V266.53c0-11.13-7.75-19.22-18.88-19.22-10.79,0-18.88,8.09-18.88,19.22V301.6H12Z" transform="translate(-12 -178.85)" style="fill:#ccc"/><path d="M101.75,266.53c0-20.23,17.54-36.76,37.77-36.76,21.92,0,37.77,14.84,37.77,36.76,0,20.23-17.53,36.76-37.77,36.76C117.6,303.29,101.75,288.45,101.75,266.53Zm56.66,0c0-11.13-7.76-19.22-18.89-19.22-10.79,0-18.88,8.09-18.88,19.22,0,10.79,8.09,19.22,18.88,19.22C150.65,285.75,158.41,277.32,158.41,266.53Z" transform="translate(-12 -178.85)" style="fill:#ccc"/><path d="M192.83,211.2a11.66,11.66,0,0,1,11.8-11.47A11.37,11.37,0,0,1,216.1,211.2,11.66,11.66,0,0,1,204.63,223,12,12,0,0,1,192.83,211.2Z" transform="translate(-12 -178.85)" style="fill:#ccc"/><rect x="182.85" y="68.15" width="18.89" height="54.6" style="fill:#ccc"/><path d="M237.34,178.85h18.89v85.66l30.69-33h22.25L291,251l18.21,50.58H290.29l-13.15-35.74-20.91,22.59V301.6H237.34Z" transform="translate(-12 -178.85)" style="fill:#ccc"/><path d="M411.46,266.53c0-21.92,18.89-36.76,38.11-36.76,21.92,0,37.43,14.84,37.43,36.76V301.6H468.11V266.53c0-11.13-7.75-19.22-18.88-19.22-10.79,0-18.88,8.09-18.88,19.22V301.6H411.46Z" transform="translate(-12 -178.85)" style="fill:#ccc"/><path d="M323.34,266.53V247.46h18.88v19.07c0,10.79,8.1,19.22,18.89,19.22,11.13,0,18.88-8.43,18.88-19.22V247.46h18.89v19.07c0,21.92-18.89,36.76-38.11,36.76C338.85,303.29,323.34,288.45,323.34,266.53Z" transform="translate(-12 -178.85)" style="fill:#f15a24"/><circle cx="321.5" cy="33.65" r="10.5" style="fill:#f15a24"/><circle cx="376.5" cy="33.65" r="10.5" style="fill:#f15a24"/></svg>